<svg preserveAspectRatio="none" overflow="visible" style="display: block;" width="24" height="24" viewBox="0 0 24 24" fill="none" xmlns="http://www.w3.org/2000/svg">
<g id="Frame">
<path id="Vector" d="M2.5 7.5V13.5C2.5 17.2712 2.5 19.1569 3.67157 20.3284C4.84315 21.5 6.72876 21.5 10.5 21.5H13M21.5 13V7.5" stroke="#6644DD" stroke-width="1.5" stroke-linecap="round" stroke-linejoin="round"/>
<path id="Vector_2" d="M3.86909 5.31461L2.5 7.5H21.5L20.2478 5.41303C19.3941 3.99021 18.9673 3.2788 18.2795 2.8894C17.5918 2.5 16.7621 2.5 15.1029 2.5H8.95371C7.32998 2.5 6.51812 2.5 5.84013 2.8753C5.16215 3.2506 4.73113 3.93861 3.86909 5.31461Z" stroke="#6644DD" stroke-width="1.5" stroke-linecap="round" stroke-linejoin="round"/>
<path id="Vector_3" d="M12 7.5V2.5" stroke="#6644DD" stroke-width="1.5" stroke-linecap="round" stroke-linejoin="round"/>
<path id="Vector_4" d="M10 10.5H14" stroke="#6644DD" stroke-width="1.5" stroke-linecap="round" stroke-linejoin="round"/>
<path id="Vector_5" d="M21.3787 21.3789L19.5 19.5003M19.5 19.5003C20.0429 18.9574 20.3787 18.2074 20.3787 17.3789C20.3787 15.7221 19.0355 14.3789 17.3787 14.3789C15.7218 14.3789 14.3787 15.7221 14.3787 17.3789C14.3787 19.0358 15.7218 20.3789 17.3787 20.3789C18.2071 20.3789 18.9571 20.0431 19.5 19.5003Z" stroke="#6644DD" stroke-width="1.5" stroke-linecap="round" stroke-linejoin="round"/>
</g>
</svg>
