<svg preserveAspectRatio="none" overflow="visible" style="display: block;" width="20" height="20" viewBox="0 0 20 20" fill="none" xmlns="http://www.w3.org/2000/svg">
<g id="Frame">
<path id="Vector" d="M16.6667 18.3333V15.8333C16.6667 14.262 16.6667 13.4763 16.1785 12.9882C15.6903 12.5 14.9047 12.5 13.3333 12.5H11.6667L10 14.1667L8.33333 12.5H6.66667C5.09532 12.5 4.30964 12.5 3.82149 12.9882C3.33333 13.4763 3.33333 14.262 3.33333 15.8333V18.3333" stroke="#215A2D" stroke-width="1.4" stroke-linecap="round" stroke-linejoin="round"/>
<path id="Vector_2" d="M13.3333 12.5V18.3333" stroke="#215A2D" stroke-width="1.4" stroke-linecap="round" stroke-linejoin="round"/>
<path id="Vector_3" d="M6.66667 12.5V18.3333" stroke="#215A2D" stroke-width="1.4" stroke-linecap="round" stroke-linejoin="round"/>
<path id="Vector_4" d="M12.9167 7.5V5.83333C12.9167 4.2225 11.6108 2.91667 10 2.91667C8.38917 2.91667 7.08333 4.2225 7.08333 5.83333V7.5C7.08333 9.11083 8.38917 10.4167 10 10.4167C11.6108 10.4167 12.9167 9.11083 12.9167 7.5Z" stroke="#215A2D" stroke-width="1.4" stroke-linecap="round" stroke-linejoin="round"/>
<path id="Vector_5" d="M6.25 6.25H13.75" stroke="#215A2D" stroke-width="1.4" stroke-linecap="round" stroke-linejoin="round"/>
<path id="Vector_6" d="M10 1.66667V2.91667" stroke="#215A2D" stroke-width="1.4" stroke-linecap="round" stroke-linejoin="round"/>
</g>
</svg>
