<svg preserveAspectRatio="none" overflow="visible" style="display: block;" width="20.8" height="20.8" viewBox="0 0 20.8 20.8" fill="none" xmlns="http://www.w3.org/2000/svg">
<g id="Group">
<path id="Vector" d="M7.06722 0.4C4.30915 0.4 2.06618 2.6425 2.06618 5.4C2.06618 8.1575 4.30915 10.4 7.06722 10.4C9.8253 10.4 12.0683 8.1575 12.0683 5.4C12.0683 2.6425 9.8253 0.4 7.06722 0.4ZM7.06722 9.56667C4.76924 9.56667 2.89969 7.6975 2.89969 5.4C2.89969 3.1025 4.76924 1.23333 7.06722 1.23333C9.3652 1.23333 11.2348 3.1025 11.2348 5.4C11.2348 7.6975 9.3652 9.56667 7.06722 9.56667ZM10.3712 13.1242C10.3293 13.2262 10.2488 13.3075 10.1472 13.3506C10.0456 13.3936 9.93115 13.3949 9.82863 13.3542C9.08379 13.0536 8.28801 12.8994 7.48481 12.9C4.03742 12.9 1.23351 15.7033 1.23351 19.15V19.9833C1.23351 20.0938 1.1896 20.1998 1.11144 20.278C1.03329 20.3561 0.927283 20.4 0.816753 20.4C0.706224 20.4 0.600221 20.3561 0.522064 20.278C0.443908 20.1998 0.4 20.0938 0.4 19.9833V19.15C0.4 15.2442 3.57816 12.0667 7.48481 12.0667C8.40333 12.0667 9.29685 12.24 10.1412 12.5817C10.2437 12.6231 10.3255 12.7035 10.3686 12.8053C10.4117 12.907 10.4127 13.0217 10.3712 13.1242ZM16.2358 19.9833C16.2358 20.0938 16.1919 20.1998 16.1137 20.278C16.0356 20.3561 15.9296 20.4 15.819 20.4H14.152C13.5996 20.3993 13.07 20.1796 12.6793 19.7891C12.2887 19.3985 12.0689 18.869 12.0683 18.3167V13.3167C12.0683 12.1683 13.0026 11.2333 14.152 11.2333H15.819C15.9296 11.2333 16.0356 11.2772 16.1137 11.3554C16.1919 11.4335 16.2358 11.5395 16.2358 11.65C16.2358 11.7605 16.1919 11.8665 16.1137 11.9446C16.0356 12.0228 15.9296 12.0667 15.819 12.0667H14.152C13.4627 12.0667 12.9018 12.6275 12.9018 13.3167V18.3167C12.9018 19.0058 13.4627 19.5667 14.152 19.5667H15.819C15.9296 19.5667 16.0356 19.6106 16.1137 19.6887C16.1919 19.7668 16.2358 19.8728 16.2358 19.9833ZM20.4 15.8342C20.4 16.1692 20.2616 16.5158 19.9991 16.7442L17.7619 18.7158C17.7209 18.7521 17.6731 18.7798 17.6213 18.7976C17.5695 18.8154 17.5148 18.8228 17.4601 18.8193C17.4055 18.8159 17.352 18.8018 17.3029 18.7778C17.2537 18.7537 17.2097 18.7202 17.1735 18.6792C17.1373 18.6381 17.1095 18.5904 17.0917 18.5386C17.0739 18.4868 17.0666 18.432 17.07 18.3774C17.0734 18.3228 17.0875 18.2693 17.1116 18.2202C17.1356 18.171 17.1691 18.1271 17.2102 18.0908L19.3173 16.2333H14.9855C14.875 16.2333 14.769 16.1894 14.6908 16.1113C14.6127 16.0332 14.5688 15.9272 14.5688 15.8167C14.5688 15.7062 14.6127 15.6002 14.6908 15.522C14.769 15.4439 14.875 15.4 14.9855 15.4H19.2048L17.2102 13.6417C17.1691 13.6054 17.1356 13.5615 17.1116 13.5123C17.0875 13.4632 17.0734 13.4097 17.07 13.3551C17.0666 13.3005 17.0739 13.2457 17.0917 13.1939C17.1095 13.1421 17.1373 13.0944 17.1735 13.0533C17.2097 13.0123 17.2537 12.9788 17.3029 12.9547C17.352 12.9307 17.4055 12.9166 17.4601 12.9132C17.5148 12.9097 17.5695 12.9171 17.6213 12.9349C17.6731 12.9527 17.7209 12.9804 17.7619 13.0167L20.0024 14.9917C20.2491 15.2033 20.4 15.5075 20.4 15.8342Z" fill="#39AE51" stroke="#39AE51" stroke-width="0.8"/>
</g>
</svg>
