<svg preserveAspectRatio="none" overflow="visible" width="28" height="28" viewBox="0 0 28 28" fill="none" xmlns="http://www.w3.org/2000/svg">
  <path d="M25.1347 12.8858C25.4893 13.3832 25.6667 13.6319 25.6667 14C25.6667 14.3681 25.4893 14.6168 25.1347 15.1142C23.5409 17.349 19.4707 22.1667 14 22.1667C8.52924 22.1667 4.45912 17.349 2.86538 15.1142C2.51068 14.6168 2.33333 14.3681 2.33333 14C2.33333 13.6319 2.51068 13.3832 2.86538 12.8858C4.45912 10.651 8.52924 5.83333 14 5.83333C19.4707 5.83333 23.5409 10.651 25.1347 12.8858Z" stroke="#39AE51" stroke-width="1.98333"/>
  <path d="M17.5 14C17.5 12.0669 15.933 10.5 14 10.5C12.0669 10.5 10.5 12.0669 10.5 14C10.5 15.933 12.0669 17.5 14 17.5C15.933 17.5 17.5 15.933 17.5 14Z" stroke="#39AE51" stroke-width="1.98333"/>
</svg>
